<?xml version="1.0" encoding="UTF-8" standalone="no"?>
<svg
   xmlns:svg="http://www.w3.org/2000/svg"
   xmlns="http://www.w3.org/2000/svg"
   viewBox="0 0 156.06326 115.02825"
   height="115.02825"
   width="156.06326"
   version="1.1"
   id="svg2">
<defs
     id="defs6" /><g
     id="g30"
     transform="matrix(1.25,0,0,-1.25,-435.84475,521.64462)"><g
       transform="translate(356.6758,380.5576)"
       id="g100"><path
         id="path102"
         style="fill:#c14517;fill-opacity:1;fill-rule:nonzero;stroke:none"
         d="m 0,0 c 0,1.267 0.158,2.466 0.479,3.598 0.319,1.131 0.775,2.176 1.367,3.135 0.592,0.958 1.3,1.821 2.125,2.587 0.825,0.767 1.742,1.417 2.753,1.951 1.01,0.535 2.098,0.947 3.266,1.238 1.167,0.289 2.383,0.435 3.65,0.435 1.708,0 3.303,-0.256 4.79,-0.767 1.487,-0.511 2.804,-1.219 3.955,-2.125 l -1.62,-2.578 c -0.871,0.777 -1.943,1.402 -3.214,1.873 -1.272,0.47 -2.68,0.705 -4.225,0.705 -1.371,0 -2.656,-0.241 -3.859,-0.723 C 8.266,8.847 7.215,8.182 6.314,7.335 5.414,6.486 4.705,5.481 4.189,4.32 3.672,3.159 3.414,1.894 3.414,0.522 c 0,-1.416 0.267,-2.734 0.801,-3.954 0.534,-1.219 1.265,-2.282 2.195,-3.188 0.93,-0.905 2.012,-1.617 3.249,-2.133 1.237,-0.518 2.564,-0.775 3.981,-0.775 0.684,0 1.39,0.066 2.116,0.199 0.726,0.134 1.429,0.316 2.108,0.549 0.679,0.232 1.322,0.503 1.925,0.81 0.604,0.308 1.127,0.642 1.568,1.002 l 1.254,-2.404 c -0.557,-0.477 -1.184,-0.9 -1.881,-1.272 -0.697,-0.372 -1.441,-0.691 -2.23,-0.959 -0.79,-0.266 -1.62,-0.469 -2.491,-0.609 -0.871,-0.139 -1.765,-0.209 -2.683,-0.209 -1.823,0 -3.543,0.305 -5.156,0.915 -1.615,0.61 -3.029,1.463 -4.242,2.561 C 2.714,-7.848 1.756,-6.538 1.053,-5.017 0.351,-3.495 0,-1.823 0,0"
          /></g><g
       transform="translate(380.6953,381.0801)"
       id="g104"><path
         id="path106"
         style="fill:#c14517;fill-opacity:1;fill-rule:nonzero;stroke:none"
         d="m 0,0 c 0,-1.416 0.266,-2.734 0.801,-3.954 0.533,-1.22 1.265,-2.282 2.195,-3.189 0.929,-0.905 2.012,-1.617 3.248,-2.132 1.237,-0.518 2.565,-0.776 3.981,-0.776 1.371,0 2.657,0.24 3.859,0.723 1.201,0.481 2.25,1.146 3.145,1.994 0.894,0.848 1.602,1.853 2.125,3.014 0.522,1.162 0.784,2.427 0.784,3.798 0,0.94 -0.122,1.84 -0.367,2.7 C 19.527,3.037 19.186,3.842 18.744,4.591 18.303,5.34 17.768,6.016 17.141,6.62 16.514,7.225 15.822,7.744 15.068,8.18 14.313,8.615 13.5,8.949 12.629,9.182 11.758,9.413 10.853,9.529 9.912,9.529 8.541,9.529 7.255,9.288 6.053,8.807 4.852,8.324 3.8,7.659 2.9,6.812 2,5.964 1.291,4.959 0.774,3.798 0.258,2.637 0,1.371 0,0 m -3.415,-0.522 c 0,1.266 0.159,2.465 0.479,3.597 0.319,1.132 0.776,2.177 1.368,3.136 0.591,0.958 1.3,1.82 2.125,2.587 0.824,0.766 1.742,1.417 2.752,1.951 1.011,0.534 2.099,0.946 3.267,1.237 1.166,0.289 2.383,0.436 3.649,0.436 1.22,0 2.392,-0.141 3.519,-0.419 1.127,-0.278 2.184,-0.673 3.17,-1.185 0.988,-0.511 1.888,-1.134 2.701,-1.873 0.813,-0.737 1.512,-1.567 2.099,-2.49 0.587,-0.924 1.04,-1.928 1.358,-3.014 0.321,-1.086 0.48,-2.233 0.48,-3.441 0,-1.266 -0.159,-2.465 -0.48,-3.598 -0.318,-1.131 -0.774,-2.176 -1.367,-3.134 -0.592,-0.959 -1.301,-1.821 -2.125,-2.588 -0.824,-0.766 -1.742,-1.416 -2.752,-1.951 -1.011,-0.534 -2.099,-0.946 -3.267,-1.237 -1.166,-0.29 -2.383,-0.435 -3.649,-0.435 -1.824,0 -3.543,0.304 -5.157,0.915 -1.614,0.609 -3.028,1.463 -4.241,2.56 -1.215,1.098 -2.172,2.407 -2.875,3.929 -0.703,1.521 -1.054,3.193 -1.054,5.017"
          /></g><g
       transform="translate(405.5869,393.2949)"
       id="g108"><path
         id="path110"
         style="fill:#c14517;fill-opacity:1;fill-rule:nonzero;stroke:none"
         d="m 0,0 3.223,0 0,-21.883 13.448,0 0,-2.927 L 0,-24.81 0,0 Z"
          /></g><g
       transform="translate(356.6758,347.5576)"
       id="g112"><path
         id="path114"
         style="fill:#2f3031;fill-opacity:1;fill-rule:nonzero;stroke:none"
         d="m 0,0 c 0,1.267 0.158,2.466 0.479,3.598 0.319,1.131 0.775,2.176 1.367,3.135 0.592,0.958 1.3,1.821 2.125,2.587 0.825,0.767 1.742,1.417 2.753,1.951 1.01,0.535 2.098,0.947 3.266,1.238 1.167,0.289 2.383,0.435 3.65,0.435 1.708,0 3.303,-0.256 4.79,-0.767 1.487,-0.511 2.804,-1.219 3.955,-2.125 l -1.62,-2.578 c -0.871,0.777 -1.943,1.402 -3.214,1.873 -1.272,0.47 -2.68,0.705 -4.225,0.705 -1.371,0 -2.656,-0.241 -3.859,-0.723 C 8.266,8.847 7.215,8.182 6.314,7.335 5.414,6.486 4.705,5.481 4.189,4.32 3.672,3.159 3.414,1.894 3.414,0.522 c 0,-1.416 0.267,-2.734 0.801,-3.954 0.534,-1.219 1.265,-2.282 2.195,-3.188 0.93,-0.905 2.012,-1.617 3.249,-2.133 1.237,-0.518 2.564,-0.775 3.981,-0.775 0.684,0 1.39,0.066 2.116,0.199 0.726,0.134 1.429,0.316 2.108,0.549 0.679,0.232 1.322,0.503 1.925,0.81 0.604,0.308 1.127,0.642 1.568,1.002 l 1.254,-2.404 c -0.557,-0.477 -1.184,-0.9 -1.881,-1.272 -0.697,-0.372 -1.441,-0.691 -2.23,-0.959 -0.79,-0.266 -1.62,-0.469 -2.491,-0.609 -0.871,-0.139 -1.765,-0.209 -2.683,-0.209 -1.823,0 -3.543,0.305 -5.156,0.915 -1.615,0.61 -3.029,1.463 -4.242,2.561 C 2.714,-7.848 1.756,-6.538 1.053,-5.017 0.351,-3.495 0,-1.823 0,0"
          /></g><g
       transform="translate(427.1709,359.7275)"
       id="g116"><path
         id="path118"
         style="fill:#2f3031;fill-opacity:1;fill-rule:nonzero;stroke:none"
         d="m 0,0 -2.874,0 0,-19.476 L -18.763,0 l -2.821,0 0,-24.667 2.874,0 0,19.616 12.193,-14.94 6.517,0 L 0,0 Z"
          /></g><g
       transform="translate(429.2197,347.5576)"
       id="g120"><path
         id="path122"
         style="fill:#2f3031;fill-opacity:1;fill-rule:nonzero;stroke:none"
         d="m 0,0 c 0,1.267 0.159,2.466 0.479,3.598 0.319,1.131 0.776,2.176 1.368,3.135 0.591,0.958 1.3,1.821 2.125,2.587 0.824,0.767 1.742,1.417 2.752,1.951 1.011,0.535 2.099,0.947 3.266,1.238 1.168,0.289 2.384,0.435 3.651,0.435 1.707,0 3.303,-0.256 4.79,-0.767 1.486,-0.511 2.804,-1.219 3.955,-2.125 l -1.62,-2.578 c -0.871,0.777 -1.943,1.402 -3.215,1.873 -1.272,0.47 -2.68,0.705 -4.225,0.705 -1.37,0 -2.656,-0.241 -3.858,-0.723 C 8.266,8.847 7.215,8.182 6.315,7.335 5.415,6.486 4.706,5.481 4.189,4.32 3.673,3.159 3.415,1.894 3.415,0.522 c 0,-1.416 0.266,-2.734 0.801,-3.954 0.533,-1.219 1.265,-2.282 2.195,-3.188 0.929,-0.905 2.012,-1.617 3.248,-2.133 1.237,-0.518 2.565,-0.775 3.982,-0.775 0.684,0 1.39,0.066 2.116,0.199 0.725,0.134 1.429,0.316 2.107,0.549 0.68,0.232 1.322,0.503 1.926,0.81 0.604,0.308 1.126,0.642 1.567,1.002 l 1.254,-2.404 c -0.556,-0.477 -1.184,-0.9 -1.881,-1.272 -0.697,-0.372 -1.44,-0.691 -2.229,-0.959 -0.79,-0.266 -1.62,-0.469 -2.491,-0.609 -0.871,-0.139 -1.766,-0.209 -2.684,-0.209 -1.823,0 -3.542,0.305 -5.156,0.915 -1.614,0.61 -3.028,1.463 -4.241,2.561 C 2.714,-7.848 1.757,-6.538 1.054,-5.017 0.351,-3.495 0,-1.823 0,0"
         /></g><g
       transform="translate(390.9199,338.0293)"
       id="g124"><path
         id="path126"
         style="fill:#2f3031;fill-opacity:1;fill-rule:nonzero;stroke:none;stroke-width:0.08;stroke-miterlimit:4;stroke-dasharray:none;stroke-opacity:0"
         d="m 0,0 c -1.416,0 -2.743,0.258 -3.98,0.775 -1.237,0.516 -2.32,1.228 -3.249,2.133 -0.929,0.906 -1.662,1.969 -2.195,3.189 -0.535,1.219 -0.801,2.538 -0.801,3.954 0,1.371 0.258,2.637 0.775,3.798 0.516,1.161 1.225,2.166 2.126,3.014 0.899,0.847 1.951,1.512 3.152,1.994 1.202,0.482 2.488,0.723 3.86,0.723 0.419,0 0.83,-0.031 1.236,-0.078 l 0,2.917 C 0.615,22.437 0.314,22.473 0,22.473 c -1.266,0 -2.482,-0.147 -3.648,-0.436 -1.168,-0.291 -2.256,-0.703 -3.268,-1.237 -1.01,-0.534 -1.928,-1.185 -2.752,-1.951 -0.824,-0.767 -1.533,-1.629 -2.125,-2.587 -0.592,-0.959 -1.049,-2.004 -1.367,-3.136 -0.32,-1.132 -0.48,-2.331 -0.48,-3.598 0,-1.823 0.351,-3.495 1.054,-5.016 0.703,-1.522 1.66,-2.831 2.875,-3.929 1.213,-1.098 2.627,-1.951 4.241,-2.561 1.615,-0.61 3.333,-0.915 5.158,-0.915 0.419,0 0.826,0.04 1.236,0.073 l 0,2.861 C 0.619,0.017 0.312,0 0,0"
          /></g><g
       transform="translate(396.6523,394.2881)"
       id="g128"><path
         id="path130"
         style="fill:#ffffff;fill-opacity:1;fill-rule:nonzero;stroke:none"
         d="m 0,0 c -7.692,0 -13.426,-2.438 -16.145,-6.865 -6.436,-10.496 4.969,-29.247 25.426,-41.799 10.973,-6.732 22.868,-10.594 32.635,-10.594 7.693,0 13.427,2.439 16.143,6.866 3.064,4.993 2.173,12.053 -2.508,19.882 -4.785,8.001 -12.922,15.783 -22.913,21.914 C 21.664,-3.862 9.768,0 0,0 m 41.916,-60.995 c -10.078,0 -22.305,3.955 -33.543,10.85 -21.273,13.053 -32.935,32.875 -25.998,44.188 3.046,4.962 9.306,7.694 17.625,7.694 10.08,0 22.307,-3.956 33.547,-10.852 10.224,-6.274 18.568,-14.266 23.495,-22.503 5.03,-8.411 5.917,-16.111 2.497,-21.682 -3.043,-4.963 -9.302,-7.695 -17.623,-7.695"
         /></g><g
       transform="translate(396.6523,394.7217)"
       id="g132"><path
         id="path134"
         style="fill:#2f3031;fill-opacity:1;fill-rule:nonzero;stroke:none"
         d="m 0,0 c -7.85,0 -13.715,-2.512 -16.514,-7.072 -6.562,-10.699 4.907,-29.718 25.568,-42.396 11.04,-6.773 23.017,-10.658 32.862,-10.658 7.851,0 13.715,2.513 16.513,7.074 3.153,5.136 2.263,12.357 -2.505,20.331 -4.82,8.061 -13.01,15.896 -23.059,22.062 C 21.824,-3.885 9.846,0 0,0 m 41.916,-60.994 c -10,0 -22.145,3.931 -33.316,10.786 -21.07,12.928 -32.668,32.482 -25.854,43.591 2.963,4.827 9.092,7.486 17.254,7.486 10.002,0 22.146,-3.932 33.318,-10.788 10.168,-6.238 18.46,-14.178 23.351,-22.356 4.942,-8.266 5.831,-15.806 2.5,-21.232 -2.962,-4.828 -9.089,-7.487 -17.253,-7.487"
         /></g><g
       transform="translate(397.8398,359.3428)"
       id="g136"><path
         id="path138"
         style="fill:#ffffff;fill-opacity:1;fill-rule:nonzero;stroke:none"
         d="m 0,0 c 1.023,-0.531 1.969,-1.187 2.807,-1.947 0.841,-0.764 1.577,-1.636 2.184,-2.592 0.61,-0.961 1.086,-2.018 1.417,-3.142 0.331,-1.126 0.499,-2.332 0.499,-3.582 0,-1.305 -0.167,-2.561 -0.497,-3.733 -0.332,-1.172 -0.81,-2.27 -1.424,-3.262 -0.611,-0.989 -1.355,-1.894 -2.21,-2.691 -0.853,-0.792 -1.815,-1.474 -2.859,-2.027 l -3.163,2.849 c 1.137,0.456 2.142,1.093 2.985,1.894 0.843,0.797 1.521,1.758 2.014,2.855 0.491,1.093 0.74,2.301 0.74,3.593 0,0.89 -0.116,1.753 -0.347,2.563 -0.231,0.815 -0.56,1.587 -0.978,2.296 -0.415,0.705 -0.926,1.353 -1.519,1.923 L 0,0 Z"
         /></g><g
       transform="translate(397.4758,336.8086)"
       id="g140"><path
         id="path142"
         style="fill:#2f3031;fill-opacity:1;fill-rule:nonzero;stroke:none;stroke-width:0.08;stroke-miterlimit:4;stroke-dasharray:none;stroke-opacity:0"
         d="m 0,0 c 1.01,0.535 1.928,1.186 2.752,1.951 0.824,0.768 1.533,1.629 2.125,2.588 0.593,0.958 1.049,2.003 1.367,3.135 0.32,1.133 0.48,2.332 0.48,3.597 0,1.208 -0.16,2.356 -0.48,3.442 -0.318,1.086 -0.771,2.09 -1.358,3.014 -0.587,0.922 -1.286,1.752 -2.099,2.49 -0.813,0.738 -1.713,1.361 -2.701,1.873 -0.986,0.512 -2.043,0.906 -3.17,1.184 -0.837,0.207 -1.708,0.312 -2.596,0.366 l 0,-2.917 c 0.504,-0.057 0.998,-0.142 1.481,-0.27 0.871,-0.232 1.683,-0.566 2.439,-1.002 0.754,-0.435 1.446,-0.955 2.072,-1.559 0.627,-0.605 1.163,-1.281 1.604,-2.03 C 2.357,15.113 2.699,14.309 2.943,13.449 3.188,12.59 3.31,11.689 3.31,10.749 3.31,9.379 3.048,8.113 2.525,6.951 2.003,5.79 1.295,4.785 0.4,3.938 -0.494,3.09 -1.543,2.425 -2.744,1.943 -3.672,1.571 -4.652,1.347 -5.68,1.262 l 0,-2.862 c 0.824,0.065 1.633,0.17 2.412,0.364 C -2.1,-0.945 -1.011,-0.533 0,0"
         /></g><path
       id="path144"
       style="fill:#c14517;fill-opacity:1;fill-rule:nonzero;stroke:none"
       d="m 424.224,393.152 3.223,0 0,-24.667 -3.223,0 0,24.667 z"
        /><g
       transform="translate(420.6719,338.9492)"
       id="g146"><path
         id="path148"
         style="fill:#ffffff;fill-opacity:1;fill-rule:nonzero;stroke:none"
         d="m 0,0 3.412,-4.205 0.15,-0.184 0.237,0 2.7,0 0.5,0 0,0.5 0,3.67 L 0,0 Z"
         /></g><g
       transform="translate(424.4707,335.0605)"
       id="g150"><path
         id="path152"
         style="fill:#2f3031;fill-opacity:1;fill-rule:nonzero;stroke:none"
         d="M 0,0 2.7,0 2.7,5.700759 -3.816,4.676 Z"
          /></g><g
       transform="translate(429.2129,407.5947)"
       id="g154"><path
         id="path156"
         style="fill:#ffffff;fill-opacity:1;fill-rule:nonzero;stroke:none"
         d="M 0,0 C -3.582,0 -7.258,-0.256 -10.926,-0.76 -34.32,-3.974 -52.01,-16.445 -50.36,-28.562 c 1.356,-9.951 15.542,-16.901 34.497,-16.901 3.581,0 7.257,0.256 10.925,0.76 11.424,1.57 21.833,5.384 29.307,10.738 7.315,5.239 10.91,11.299 10.125,17.063 C 33.139,-6.95 18.955,0 0,0 m -15.863,-47.184 c -19.834,0 -34.719,7.562 -36.196,18.388 -1.777,13.058 16.571,26.4 40.901,29.741 3.745,0.515 7.5,0.776 11.158,0.776 19.835,0 34.717,-7.562 36.191,-18.39 0.876,-6.428 -2.968,-13.068 -10.826,-18.696 -7.697,-5.514 -18.377,-9.436 -30.071,-11.043 -3.745,-0.515 -7.499,-0.776 -11.157,-0.776"
          /></g><g
       transform="translate(429.2129,408.0254)"
       id="g158"><path
         id="path160"
         style="fill:#c14517;fill-opacity:1;fill-rule:nonzero;stroke:none"
         d="m 0,0 c -3.601,0 -7.296,-0.258 -10.984,-0.765 -23.627,-3.245 -41.482,-15.934 -39.801,-28.286 1.387,-10.17 15.748,-17.272 34.922,-17.272 3.6,0 7.296,0.257 10.983,0.762 11.491,1.581 21.968,5.421 29.498,10.816 7.45,5.336 11.109,11.541 10.3,17.471 C 33.533,-7.104 19.175,0 0,0 m -15.863,-47.184 c -19.615,0 -34.325,7.409 -35.771,18.016 -1.745,12.822 16.439,25.946 40.533,29.256 C -7.374,0.601 -3.639,0.86 0,0.86 c 19.615,0 34.322,-7.409 35.768,-18.017 0.853,-6.263 -2.93,-12.758 -10.653,-18.289 -7.64,-5.474 -18.252,-9.368 -29.879,-10.966 -3.726,-0.513 -7.461,-0.772 -11.099,-0.772"
         /></g></g></svg>
